<?xml version="1.0" encoding="UTF-8"?>
<svg id="Calque_3" xmlns="http://www.w3.org/2000/svg" version="1.1" viewBox="0 0 595.28 841.89">
  <!-- Generator: Adobe Illustrator 29.8.0, SVG Export Plug-In . SVG Version: 2.1.1 Build 160)  -->
  <defs>
    <style>
      .st0 {
        fill: #e5232b;
      }
    </style>
  </defs>
  <rect width="595.28" height="841.89"/>
  <path class="st0" d="M171.33,338.29s7.94-.39,15.73-.46c7.91-.07,11.95-.09,16.44.78,2.55.49,3.08.79,8.78,2.3,5.65,1.5,10.28,2.57,13.33,3.25,1.43.58,2.65,1.15,3.67,1.67,1.79.9,2.18,1.24,2.44,1.67.87,1.37.21,3.22,0,3.89-1.49,4.78.96,11.41,2.33,14.11.38.74,3.78,7.21,10.44,9,3.47.93,4.1-.4,10.44-.44,2.9-.02,3.28.26,14.67,2,4.52.69,8.99,1.91,13.56,2.11,4.72.2,8.74-.2,10.44,2.33.27.4.49.88.78,2.67.83,5.12.33,9,.33,9-.92,7.22.1,12.12-.67,17.78-1.38,10.17-7.8,17.19-18.86,29-9.08,9.69-17.12,16.07-20.59,18.78-24.69,19.25-31.26,18.7-53.89,35.67-13.78,10.33-12.93,11.72-31.98,26.19-13.82,10.5-13.3,9.05-27.47,19.81,0,0-3.99,3.03-10.89,7.33-9.69,6.04-13.73,7.31-17.78,7.54-2.09.11-4.96.24-8.22-1.1-6.3-2.59-9.16-8.65-11-12.55-2.71-5.76-3.31-10.75-3.44-12-1.79-16.19,3.98-28.43,6.22-49.22,1.57-14.54,2.43-23.84-3.44-31.11-1.31-1.62-5.5-4.56-13.89-10.44-8.16-5.73-12.34-8.62-16.78-10.33-8.64-3.33-15.84-3.26-17.44-3.22-2.98.07-6.39.14-10.67,1.44-6.45,1.97-9.39,5.06-12.24,3.56-1.81-.96-2.6-3.25-3.1-4.7-.46-1.35-1.17-3.41-.22-4.97.72-1.19,1.98-1.37,3.67-2,2.41-.9,3.06-1.74,6.67-4.22,5.4-3.73,12-7.41,12.67-7.78,7.53-4.16,18.49-5.45,27.44-3,12.49,3.42,12.26,11.7,25.22,14.44,1.85.39,9.87,1.92,18.67-1.22,3.41-1.22,4.8-2.37,18.13-12.6,9.12-7,13.68-10.5,14.43-11.06,14.7-11.1,16.02-11.24,18.56-15,3.41-5.07,4.42-9.86,6.33-19,0,0,1.97-9.4,1.44-16.22-.07-.86-.28-3.65-.28-3.65h0Z"/>
  <path class="st0" d="M89.64,162.24c.77-1.18,1.78-2.07,1.78-2.07,1.35-1.2,3.41-2.39,6.8-2.8,22.95-2.8,71.13,4.14,71.13,4.14,17.94,2.58,22.25,2.52,30.96,6.07,7.25,2.95,20.54,8.37,26.22,20.74,1.01,2.2.71,2.29,3.26,19.11,3.26,21.49,4.2,24.33,5.04,26.52,3.93,10.25,9.96,17.53,11.7,19.56,4.8,5.59,7.34,6.61,13.19,13.93,3.71,4.65,6.11,8.52,8.15,11.85,5.12,8.34,5.42,10.58,10.37,19.85,8.74,16.39,14.3,21.61,18.81,24.59,5.46,3.61,8.9,3.62,11.11,2.96,1.79-.54,1.96-1.27,4.44-2.96.63-.43,7.38-4.91,16-4.74,3.19.06,5.88.11,7.77,2.18,1.77,1.93,2.38,5.12,1.41,7.45-.7,1.7-1.75,1.73-2.81,3.7-1.14,2.1-1.11,4.18-1.04,5.78.42,9.63,2.8,14.89,1.48,20.44-1.21,5.09-5.43,10.03-10.37,11.41-3.63,1.01-6.96-.1-16.44-5.33-16.6-9.17-18.75-12.58-26.22-14.96-4.67-1.49-11.92-2.74-22.07-.44-3.99.41-7.33.55-9.78.59-4.54.08-6.86.1-9.63-.59-4.03-1.01-6.7-2.89-7.7-3.56-7.75-5.14-21.77-7.59-37.63-10.37-9.31-1.63-18.5-4.08-27.9-5.11-2-.22-5.62-.58-9.43-2.89-6.63-4-8.95-10.93-9.33-12.15-1-3.14-1.01-5.65-1.04-7.41-.14-9.01-.3-19.63-2.37-27.26-1.68-6.2-4.97-10.6-11.56-19.41-5.4-7.23-7.57-8.34-13.78-16.3-5.3-6.79-8.68-12.33-11.26-16.59-21.25-35.09-21.93-61.84-19.26-65.93Z"/>
  <path class="st0" d="M343.72,316.61c.96-.93,1.97-1.46,7.22-3.44,6.1-2.3,6.34-2.15,7.56-2.78,1.56-.8,4.68-2.77,8.56-10.11,3.86-7.31,5.55-14.42,8.67-27.56.07-.3,1.02-4.3,3.22-9.23,1.6-3.59,2.43-5.4,3.89-6.43,2.33-1.65,5.45-1.81,11.22-2.11,1.75-.09,3.08-.08,4.67-.89,2.3-1.17,3.42-3.18,3.8-3.83,3.38-5.79,14.26-17.17,23.4-23.38,7.9-5.37,12.84-5.75,14.69-5.8,1.59-.04,5.89-.1,10,2.44,3.7,2.29,5.45,5.57,5.95,6.44,3.66,6.42,12.66,10.95,29.28,19,32.57,15.78,38.49,18,42.44,25.67,3.98,7.72,3.89,15.89,3.89,15.89-.01,1.12-.13,5.91-2.78,12.78-5.95,15.42-18.1,24.31-23.44,28.22-6.35,4.65-12.89,7.78-12.89,7.78-2.58,1.23-3.23,1.37-5.67,2.56-6.57,3.21-10.94,6.68-12.67,8-11.79,8.97-29.74,15.29-35.56,17.33-9.84,3.46-14.76,5.19-17.55,5.58-5.85.81-12.14.66-13.78,4.2-.46.98-.41,1.93-.33,3.67.14,3.13,1.21,5.68,2.56,8.11,2.96,5.34,6.52,8.75,6.67,8.89,12.4,11.68,31.11,25.67,31.11,25.67,10.56,7.89,21.19,15.69,31.78,23.56,1.26.94,4.39,3.26,8.89,5.78,4.49,2.51,6.68,3.87,9.27,4.41,2.44.52,6.17.69,13.95-2.64,10.92-4.66,10.03-7.76,17.11-10.33,6.43-2.34,13.88-.89,28.78,2,3.28.64,7.39,1.57,11.22,4.78,2.76,2.31,4.2,4.8,4.85,5.96,5.36,9.48,5.87,27.95-5.3,38.6-3.68,3.51-7.44,5.04-10.33,6.22-7.78,3.17-14.08,2.85-26.22,2.22-4.58-.24-13.98-.94-25.33-3.67-1.63-.39-5.76-1.41-11-3.11-7.94-2.57-13.71-5.16-15.71-6.08-5.62-2.58-8.42-3.87-11.51-6.03-3.07-2.15-5.11-4.22-12.33-13.33-4.7-5.94-10.9-13.98-18.78-22.55-2.04-2.22-4.5-4.81-8.56-6.67-4.88-2.23-9.57-2.24-11.78-2.11-1.49.09-2.89.31-6.39,1.22-6.56,1.7-10.44,3.21-14.49,4.56-5.85,1.94-10.1,2.89-16.11,4.22-8.61,1.91-11.83,2.07-15.22,1.56-2.84-.43-6.07-.95-8.67-3.44-1.95-1.87-2.72-4.07-3.89-10.11-1.34-6.92-1.76-11.45-2.78-18.89-.58-4.26-1.18-8.11-2.78-12.89-2.11-6.29-3.84-7.85-5.44-8.44-1.27-.47-2.29-.26-5.22-1.22-.84-.27-2.13-.7-3.56-1.44-.69-.36-3.2-1.72-5.67-4.56-1.99-2.28-4.38-5.03-4.32-8.22.06-2.82,2-4.57,4.65-7.44,5.26-5.71,11.47-12.44,12.89-20,.41-2.2-.28-.75-.67-10.11-.15-3.65-.36-11.48,1.39-20.69.8-4.23,1.53-6.18,3.17-7.76Z"/>
  <path class="st0" d="M311.83,409.05c2.7-.63,4.95-.31,7,0,3.39.51,6.39,1.58,12.56,4.89,8.33,4.47,12.49,6.7,14.78,10.11,1.59,2.37,2.07,4.28,3.33,9.67,2.87,12.25,4.31,18.38,4.67,20.67,1.15,7.31.92,3.37,8.67,38.22,6.12,27.51,6.51,31.07,10.67,37.33,2.29,3.45,7.47,10.37,14.11,17.56,2.84,3.08,5.12,5.54,8.58,8.65,8.58,7.72,14.09,10.1,19.65,18.03,1.69,2.42,2.66,4.3,2.99,6.64.33,2.28-.03,4.41-3.33,11.67-3.64,7.99-5.53,12.04-8.89,15.22-2.38,2.25-4.5,3.45-6.89,4.78-1.63.91-9.02,4.89-21.77,6.54-9.44,1.22-11.68-.16-17.9,2.35-2.08.84-5.17,2.12-8.22,4.89-6.18,5.6-7.67,13.16-8.89,19.33-.13.66-.68,5.73-1.78,15.89-.75,6.9-.96,9.08-2.56,11.89-2.26,3.97-5.56,6.16-8.67,8.22-1.72,1.14-4.99,3.11-10.67,5-4.92,1.64-10.25,2.74-18.33,3.33-8.57.63-16.68.41-24.33-.33-16.68-1.62-28.62-5.49-35.56-7.78-8.11-2.68-12.41-4.77-16.32-7.25-3.67-2.33-8.12-5.15-11.79-9.86-7.24-9.28-7.36-20.58-7.44-29.33-.12-11.38,2.48-12.85,1.11-23-.41-3.06-1.17-6.81-.67-12.22.42-4.5,1.51-7.97,2.67-11.22,3.65-10.24,7.88-17.98,9.33-20.67,4.83-8.93-.21-.55,12.33-25.11,14.94-29.23,18.94-34.96,33.44-63,8.35-16.14,18.9-31.14,26.44-47.67,0,0,2.81-6.16,11.91-16.67,2.25-2.59,5.18-5.71,9.76-6.78Z"/>
</svg>